<svg width="121" height="80" viewBox="0 0 121 80" fill="none" xmlns="http://www.w3.org/2000/svg">
<path d="M58.4846 23.9619L29.163 25.0796V23.7926C29.163 23.1349 29.6484 22.6918 30.4218 22.6241C31.1951 22.5535 56.5371 20.5468 56.5371 20.5468C56.5371 20.5468 58.5043 1.84301 58.5834 1.19668C58.668 0.485447 59.066 0 59.78 0H61.0275L59.9353 22.4999C59.8647 23.2874 59.2946 23.8857 58.4846 23.9647V23.9619ZM48.5865 3.66061H47.7257C47.1556 3.66061 46.7181 4.10372 46.6052 4.65126L45.5722 9.58194C45.5722 9.58194 38.3216 10.4315 37.6019 10.6234C36.8822 10.8153 36.4899 11.2076 36.4899 11.7806V12.6414L48.1039 12.1164L48.5865 3.66343V3.66061ZM54.807 1.82889H53.5257C52.806 1.82889 52.4503 2.38208 52.3629 3.02558C52.2754 3.66908 50.8105 14.8174 50.8105 14.8174C50.8105 14.8174 35.0053 16.2963 34.0852 16.4008C33.1651 16.5052 32.8264 17.0273 32.8264 17.6087V18.8562L53.8277 17.8345L54.8042 1.82607L54.807 1.82889Z" fill="#00AA8D"/>
<path d="M95.6693 40.9215C95.6693 40.9215 95.6693 41.5537 95.6693 42.2113C95.6693 42.8689 95.1838 43.3092 94.4105 43.3798C93.6371 43.4503 68.3883 45.4627 68.3883 45.4627C68.3883 45.4627 66.311 78.157 66.2489 78.8033C66.1812 79.5005 65.7663 80 65.0522 80H63.8047L64.9873 43.5011C65.0212 42.7137 65.6506 42.0843 66.438 42.0504L95.6664 40.9215H95.6693ZM76.2457 69.0153H77.1065C77.6767 69.0153 78.1536 68.5666 78.227 68.0247L79.3503 56.4276C79.3503 56.4276 84.679 55.5724 85.3987 55.3777C86.1184 55.1857 86.5107 54.7934 86.5107 54.2205V53.3597L76.8187 53.8931L76.2457 69.0125V69.0153ZM71.2755 76.3394C72.0206 76.3394 72.4073 75.7664 72.4694 75.1427C72.5315 74.519 74.112 51.1893 74.112 51.1893C74.112 51.1893 88.8335 49.7104 89.7536 49.6059C90.6737 49.5015 91.0886 49.1035 91.0886 48.3895V47.142L71.0921 48.1693L70.0224 76.3394H71.2755Z" fill="#00AA8D"/>
<path d="M80.0926 12.1136H64.4031L64.468 10.7702C64.5019 10.0674 65.0522 9.50573 65.755 9.53396L80.9196 10.5641V11.2866C80.9196 11.7439 80.5498 12.1136 80.0926 12.1136ZM85.7825 17.2926V16.5701L65.4558 15.54C64.753 15.5117 64.2055 16.0762 64.1688 16.7762L64.1039 18.1196H84.9555C85.4128 18.1196 85.7825 17.7499 85.7825 17.2926ZM90.6454 23.3015V22.5789L65.1566 21.5488C64.4539 21.5205 63.9063 22.0822 63.8696 22.785L63.8047 24.1284H89.8185C90.2757 24.1284 90.6454 23.7587 90.6454 23.3015Z" fill="#FFD500"/>
<path d="M50.2066 47.8786H60.7368L60.6719 49.2221C60.638 49.9136 60.0933 50.5232 59.3849 50.4583L49.3824 49.4281V48.7056C49.3824 48.2484 49.7522 47.8786 50.2094 47.8786H50.2066ZM44.511 42.6996V43.4221L59.6756 44.4523C60.3784 44.4805 60.9626 43.9189 60.9626 43.2161L61.0275 41.8726H45.338C44.8808 41.8726 44.511 42.2424 44.511 42.6996Z" fill="#FFD500"/>
<path d="M29.1432 34.9127H27.1732L26.9051 35.8695C26.8035 36.2251 26.4789 36.4734 26.1092 36.4734H25L27.0236 30.1034C27.1337 29.759 27.4526 29.5276 27.8111 29.5276H29.1686L31.4435 36.4763H29.5892L29.1489 34.9155L29.1432 34.9127ZM28.8412 33.5382L28.1667 31.2267L27.4724 33.5382H28.8412ZM37.489 29.5248L37.314 30.9698H34.6412V32.4431H37.091L36.916 33.8571H34.6412V35.6465C34.6412 36.1037 34.2715 36.4734 33.8143 36.4734H32.8151V30.3517C32.8151 29.8945 33.1849 29.5248 33.6421 29.5248H37.489ZM44.2485 31.8673C44.2485 32.1411 44.226 32.381 44.1808 32.5842C44.1357 32.7903 44.0623 32.9709 43.9663 33.1261C43.8675 33.2814 43.7462 33.4196 43.5994 33.5354C43.4526 33.6511 43.2777 33.7555 43.0773 33.8486L44.511 36.4734H42.5975L41.3867 34.0632H40.7827V35.6465C40.7827 36.1037 40.4129 36.4734 39.9557 36.4734H39.0159V29.5248H42.0415C42.4507 29.5248 42.795 29.5812 43.0773 29.6941C43.3567 29.807 43.5825 29.9622 43.7546 30.157C43.9268 30.3517 44.051 30.5775 44.13 30.8344C44.209 31.0912 44.2457 31.365 44.2457 31.6585V31.8645L44.2485 31.8673ZM40.7855 32.6491H41.7112C41.9653 32.6491 42.16 32.5814 42.2955 32.4488C42.4309 32.3161 42.5015 32.1242 42.5015 31.8786V31.7234C42.5015 31.2238 42.239 30.9727 41.7112 30.9727H40.7855V32.652V32.6491ZM50.836 29.5248L50.661 30.9388H47.7906V32.2653H50.5424L50.3674 33.6793H47.7906V35.0566H50.836L50.7513 35.7453C50.7005 36.1602 50.3477 36.4706 49.93 36.4706H45.9956V30.3489C45.9956 29.8917 46.3653 29.522 46.8225 29.522H50.836V29.5248ZM56.7291 32.8354L58.7696 29.5276H57.3641C57.0028 29.5276 56.6726 29.7252 56.4976 30.0413L52.2697 36.4763H53.8277C54.1184 36.4763 54.3893 36.321 54.5389 36.0699L55.6255 34.2297L56.9238 36.4734H59.0011L56.7262 32.8326L56.7291 32.8354ZM55.1401 30.5719L54.5812 29.5276H52.5124L54.1042 32.1468L55.1372 30.5719H55.1401ZM61.5892 36.4734H60.5901V30.3517C60.5901 29.8945 60.9598 29.5248 61.417 29.5248H62.4161V35.6465C62.4161 36.1037 62.0464 36.4734 61.5892 36.4734ZM69.0741 29.5304L67.5613 33.0499L65.9921 29.5304H65.0353C64.5273 29.5304 64.1886 29.8635 64.1886 30.3263V36.4734H65.8848V32.5334L66.963 34.9522H67.4625C67.9056 34.9522 68.3177 34.6248 68.5576 34.0293C68.7975 33.4338 69.1616 32.525 69.1616 32.525V36.4734H69.7825C70.3978 36.4734 70.8522 36.242 70.8522 35.5675V29.5304H69.0741ZM72.6387 36.4734V30.3517C72.6387 29.8945 73.0085 29.5248 73.4657 29.5248H75.5373C75.9155 29.5248 76.2429 29.5699 76.5223 29.6574C76.8017 29.7449 77.0303 29.8719 77.211 30.0328C77.3888 30.1965 77.5243 30.3884 77.6117 30.6086C77.6992 30.8287 77.7444 31.0743 77.7444 31.3396V31.475C77.7444 31.7686 77.6823 32.031 77.5581 32.2653C77.4339 32.4996 77.2477 32.6887 77.0021 32.8326C77.2759 32.9681 77.4932 33.1713 77.6569 33.4422C77.8206 33.7132 77.8996 34.0208 77.8996 34.3651V34.5006C77.8996 35.1131 77.6992 35.5929 77.2956 35.9457C76.892 36.2956 76.2457 36.4734 75.3539 36.4734H72.6387ZM75.3595 32.2089C75.5599 32.2089 75.7264 32.1581 75.8534 32.0564C75.9804 31.9548 76.0425 31.8024 76.0425 31.5936V31.4863C76.0425 31.2577 75.9748 31.0968 75.8365 31.0037C75.701 30.9106 75.526 30.8626 75.32 30.8626H74.3039V32.2089H75.3595ZM74.3068 35.1272H75.399C75.6192 35.1272 75.8054 35.0764 75.955 34.972C76.1046 34.8675 76.178 34.6954 76.178 34.4555V34.32C76.178 34.0547 76.1074 33.8599 75.9691 33.7442C75.8308 33.6285 75.6248 33.5692 75.3595 33.5692H74.3068V35.13V35.1272ZM83.0504 34.9127H81.0804L80.8123 35.8695C80.7107 36.2251 80.3861 36.4734 80.0164 36.4734H78.9072L80.9309 30.1034C81.0409 29.759 81.3598 29.5276 81.7183 29.5276H83.0758L85.3507 36.4763H83.4964L83.0561 34.9155L83.0504 34.9127ZM82.7485 33.5354L82.0739 31.2238L81.3796 33.5354H82.7485ZM88.1956 29.5248L90.5664 33.4281V29.5248H92.226V36.4734H90.6934L88.3226 32.5701V35.6465C88.3226 36.1037 87.9529 36.4734 87.4957 36.4734H86.6631V30.3517C86.6631 29.8945 87.0328 29.5248 87.49 29.5248H88.1956ZM99.8379 36.4734L97.0889 32.7761L99.6798 29.5248H97.659L95.6693 32.1496V29.5248H94.7689C94.3117 29.5248 93.942 29.8945 93.942 30.3517V36.4734H95.6693V34.5627L95.9966 34.1506L97.6788 36.4734H99.8379Z" fill="white"/>
</svg>
